HIERARCHY
ROOT Hips
{
	OFFSET 0.000000 0.000000 0.000000 
	CHANNELS 6 Xposition Yposition Zposition Yrotation Zrotation Xrotation 
	JOINT Lumbar
	{
		OFFSET 0.000000 0.000000 0.000000 
		CHANNELS 3 Zrotation Xrotation Yrotation
		JOINT Neck
		{
			OFFSET 0.000000 0.445665 0.000000 
			CHANNELS 3 Zrotation Xrotation Yrotation
			End Site
			{
				OFFSET 0.000000 0.227535 0.000000 
			}
		}
		JOINT RightShoulder
		{
			OFFSET 0.019635 0.377685 0.194865 
			CHANNELS 3 Zrotation Xrotation Yrotation
			JOINT RightElbow
			{
				OFFSET 0.000000 -0.243375 0.000000 
				CHANNELS 2 Zrotation Yrotation
				JOINT RightWrist
				{
					OFFSET 0.000000 -0.264825 0.000000 
					CHANNELS 2 Zrotation Xrotation
					End Site
					{
						OFFSET 0.006600 -0.176220 0.000990 
					}
				}
			}
		}
		JOINT LeftShoulder
		{
			OFFSET 0.019635 0.377685 -0.194865 
			CHANNELS 3 Zrotation Xrotation Yrotation
			JOINT LeftElbow
			{
				OFFSET 0.000000 -0.243375 0.000000 
				CHANNELS 2 Zrotation Yrotation
				JOINT LeftWrist
				{
					OFFSET 0.000000 -0.264825 0.000000 
					CHANNELS 2 Zrotation Xrotation
					End Site
					{
						OFFSET 0.006600 -0.176220 -0.000990 
					}
				}
			}
		}
	}
	JOINT RightHip
	{
		OFFSET 0.052140 -0.069960 0.075570 
		CHANNELS 3 Zrotation Xrotation Yrotation
		JOINT RightKnee
		{
			OFFSET 0.000000 -0.402270 0.000000 
			CHANNELS 1 Zrotation
			JOINT RightAnkle
			{
				OFFSET 0.000000 -0.404085 0.000000 
				CHANNELS 3 Zrotation Xrotation Yrotation
				End Site
				{
					OFFSET 0.204105 -0.089430 0.008415 
				}
			}
		}
	}
	JOINT LeftHip
	{
		OFFSET 0.052140 -0.069960 -0.075570 
		CHANNELS 3 Zrotation Xrotation Yrotation
		JOINT LeftKnee
		{
			OFFSET 0.000000 -0.402270 0.000000 
			CHANNELS 1 Zrotation
			JOINT LeftAnkle
			{
				OFFSET 0.000000 -0.404085 0.000000 
				CHANNELS 3 Zrotation Xrotation Yrotation
				End Site
				{
					OFFSET 0.204105 -0.089430 -0.008415 
				}
			}
		}
	}
}
MOTION
Frames: 11
Frame Time: 0.02
-0 0.95578 0 184.97901 0 -3.61715 3.98517 3.09134 -4.82221 -29.16548 4.18326 2.83834 -24.61806 -73.03318 -80.94066 15.93309 45.80436 -35.573 1.901 12.84022 70.23127 77.82365 21.72494 -71.27929 -24.36896 1.33705 -3.64798 5.69692 -3.36401 -7.62495 3.64365 -4.39549 -8.63076 -2.8157 4.5545 2.26717 -6.20018 5.03409 4.20403 6.95978
0.00066 0.95586 2e-05 184.96855 0 -3.62401 3.93273 3.0964 -4.77209 -29.16236 4.04474 2.78149 -24.6038 -72.87629 -81.90632 16.29781 44.12145 -35.53444 2.21175 12.92042 70.39657 77.67799 21.64761 -71.23697 -24.40262 1.32156 -3.59754 5.69554 -3.36355 -7.64259 3.61051 -4.40641 -8.61325 -2.76888 4.55575 2.24738 -6.21622 5.00625 4.20658 6.98293
0.00133 0.95593 4e-05 184.9582 0 -3.63083 3.88036 3.10141 -4.72224 -29.15962 3.90718 2.72503 -24.58868 -72.72075 -82.86333 16.6594 42.45364 -35.49618 2.51954 13.00087 70.56078 77.53246 21.5709 -71.19518 -24.43601 1.3062 -3.5472 5.69414 -3.36304 -7.66014 3.57748 -4.41705 -8.5958 -2.72211 4.55699 2.22769 -6.23219 4.97844 4.20907 7.00588
0.002 0.956 6e-05 184.94858 0 -3.63747 3.82821 3.10611 -4.67333 -29.15865 3.77235 2.66945 -24.57241 -72.56926 -83.79998 17.01308 40.8225 -35.45904 2.81938 13.08265 70.72187 77.3869 21.49618 -71.15488 -24.46839 1.29113 -3.49719 5.69267 -3.36281 -7.67732 3.54487 -4.42658 -8.5784 -2.67532 4.55818 2.20816 -6.24806 4.95065 4.21138 7.02807
0.00266 0.95607 9e-05 184.93559 0 -3.64497 3.77549 3.11229 -4.61986 -29.14865 3.62338 2.60904 -24.56519 -72.3965 -84.85014 17.40991 38.98849 -35.41636 3.16232 13.15681 70.89904 77.24256 21.41126 -71.10641 -24.50582 1.2744 -3.44594 5.6916 -3.3617 -7.69627 3.51036 -4.44191 -8.56072 -2.6289 4.55961 2.18772 -6.26449 4.92295 4.21467 7.05407
0.00333 0.95614 0.0001 184.9294 0 -3.65069 3.72361 3.11545 -4.57582 -29.15751 3.50423 2.55899 -24.53683 -72.26881 -85.65535 17.71424 37.5912 -35.38516 3.41307 13.24743 71.04233 77.09504 21.34776 -71.07545 -24.53272 1.2613 -3.39702 5.68969 -3.36205 -7.71159 3.47968 -4.44502 -8.54369 -2.5816 4.56056 2.16929 -6.27969 4.89495 4.21587 7.07216
0.004 0.95619 9e-05 184.94531 0 -3.651 3.67597 3.10918 -4.55958 -29.22271 3.4691 2.53664 -24.46366 -72.26731 -85.81633 17.77014 37.35287 -35.38821 3.41331 13.38481 71.09012 76.9399 21.3456 -71.09249 -24.52866 1.25743 -3.35607 5.6851 -3.36982 -7.71595 3.46114 -4.41269 -8.52767 -2.53165 4.55991 2.15562 -6.292 4.86652 4.21112 7.06646
0.00469 0.95623 6e-05 184.96748 0 -3.64959 3.62866 3.10008 -4.5525 -29.30614 3.46368 2.5249 -24.36638 -72.31093 -85.72607 17.73204 37.56118 -35.40226 3.32021 13.53918 71.10418 76.78073 21.36455 -71.12735 -24.51429 1.25735 -3.31706 5.67972 -3.37844 -7.71691 3.44618 -4.36829 -8.51244 -2.48073 4.55881 2.14414 -6.30303 4.83767 4.20426 7.05311
0.00538 0.95627 4e-05 184.98465 0 -3.64927 3.58 3.09297 -4.54005 -29.37866 3.44358 2.50887 -24.27146 -72.33288 -85.72766 17.73168 37.59893 -35.40978 3.2665 13.6845 71.13493 76.62297 21.37254 -71.1543 -24.50586 1.25607 -3.27621 5.67492 -3.3845 -7.71995 3.42854 -4.33048 -8.49738 -2.43043 4.55808 2.13213 -6.31426 4.80875 4.19845 7.04452
0.00604 0.95632 2e-05 185.01098 0 -3.64763 3.53685 3.08283 -4.53272 -29.46263 3.42864 2.49056 -24.21368 -72.36003 -85.81602 17.74984 37.51082 -35.42428 3.22353 13.83351 71.15972 76.46878 21.38671 -71.18031 -24.4922 1.25263 -3.23976 5.6692 -3.39979 -7.72044 3.41532 -4.28805 -8.48012 -2.37967 4.55666 2.11807 -6.32689 4.781 4.19229 7.03055
0.00676 0.95636 -0 185.01965 0 -3.64836 3.48177 3.0784 -4.51689 -29.52662 3.4098 2.47958 -24.07178 -72.38675 -85.67328 17.71017 37.77728 -35.4262 3.13859 13.98125 71.18916 76.304 21.39249 -71.21267 -24.48689 1.25453 -3.19419 5.6652 -3.39597 -7.72581 3.39377 -4.25231 -8.46759 -2.32929 4.5566 2.10891 -6.33654 4.75063 4.18633 7.02592
